<svg width="80" height="83" viewBox="0 0 80 83" fill="none" xmlns="http://www.w3.org/2000/svg">
<circle cx="40" cy="43" r="38.5" stroke="#33A0AB" stroke-width="3"/>
<path d="M48.417 37.084H37.185V42.052C37.665 41.524 38.337 41.092 39.201 40.756C40.065 40.42 41.001 40.252 42.009 40.252C43.809 40.252 45.297 40.66 46.473 41.476C47.673 42.292 48.549 43.348 49.101 44.644C49.653 45.94 49.929 47.344 49.929 48.856C49.929 51.664 49.137 53.896 47.553 55.552C45.969 57.184 43.737 58 40.857 58C38.937 58 37.269 57.676 35.853 57.028C34.437 56.356 33.345 55.432 32.577 54.256C31.809 53.08 31.389 51.724 31.317 50.188H37.329C37.473 50.932 37.821 51.556 38.373 52.06C38.925 52.54 39.681 52.78 40.641 52.78C41.769 52.78 42.609 52.42 43.161 51.7C43.713 50.98 43.989 50.02 43.989 48.82C43.989 47.644 43.701 46.744 43.125 46.12C42.549 45.496 41.709 45.184 40.605 45.184C39.789 45.184 39.117 45.388 38.589 45.796C38.061 46.18 37.713 46.696 37.545 47.344H31.605V31.684H48.417V37.084Z" fill="#EB3738"/>
</svg>
