<svg width="80" height="83" viewBox="0 0 80 83" fill="none" xmlns="http://www.w3.org/2000/svg">
<circle cx="40" cy="43" r="38.5" stroke="#33A0AB" stroke-width="3"/>
<path d="M30.9376 39.136C31.0336 36.568 31.8736 34.588 33.4576 33.196C35.0416 31.804 37.1896 31.108 39.9016 31.108C41.7016 31.108 43.2376 31.42 44.5096 32.044C45.8056 32.668 46.7776 33.52 47.4256 34.6C48.0976 35.68 48.4336 36.892 48.4336 38.236C48.4336 39.82 48.0376 41.116 47.2456 42.124C46.4536 43.108 45.5296 43.78 44.4736 44.14V44.284C45.8416 44.74 46.9216 45.496 47.7136 46.552C48.5056 47.608 48.9016 48.964 48.9016 50.62C48.9016 52.108 48.5536 53.428 47.8576 54.58C47.1856 55.708 46.1896 56.596 44.8696 57.244C43.5736 57.892 42.0256 58.216 40.2256 58.216C37.3456 58.216 35.0416 57.508 33.3136 56.092C31.6096 54.676 30.7096 52.54 30.6136 49.684H36.5896C36.6136 50.74 36.9136 51.58 37.4896 52.204C38.0656 52.804 38.9056 53.104 40.0096 53.104C40.9456 53.104 41.6656 52.84 42.1696 52.312C42.6976 51.76 42.9616 51.04 42.9616 50.152C42.9616 49 42.5896 48.172 41.8456 47.668C41.1256 47.14 39.9616 46.876 38.3536 46.876H37.2016V41.872H38.3536C39.5776 41.872 40.5616 41.668 41.3056 41.26C42.0736 40.828 42.4576 40.072 42.4576 38.992C42.4576 38.128 42.2176 37.456 41.7376 36.976C41.2576 36.496 40.5976 36.256 39.7576 36.256C38.8456 36.256 38.1616 36.532 37.7056 37.084C37.2736 37.636 37.0216 38.32 36.9496 39.136H30.9376Z" fill="#EB3738"/>
</svg>
