<svg width="80" height="83" viewBox="0 0 80 83" fill="none" xmlns="http://www.w3.org/2000/svg">
<circle cx="40" cy="43" r="38.5" stroke="#33A0AB" stroke-width="3"/>
<path d="M31.1208 53.068C31.9368 52.42 32.3088 52.12 32.2368 52.168C34.5888 50.224 36.4368 48.628 37.7808 47.38C39.1488 46.132 40.3008 44.824 41.2368 43.456C42.1728 42.088 42.6408 40.756 42.6408 39.46C42.6408 38.476 42.4128 37.708 41.9568 37.156C41.5008 36.604 40.8168 36.328 39.9048 36.328C38.9928 36.328 38.2728 36.676 37.7448 37.372C37.2408 38.044 36.9888 39.004 36.9888 40.252H31.0488C31.0968 38.212 31.5288 36.508 32.3448 35.14C33.1848 33.772 34.2768 32.764 35.6208 32.116C36.9888 31.468 38.5008 31.144 40.1568 31.144C43.0128 31.144 45.1608 31.876 46.6008 33.34C48.0648 34.804 48.7968 36.712 48.7968 39.064C48.7968 41.632 47.9208 44.02 46.1688 46.228C44.4168 48.412 42.1848 50.548 39.4728 52.636H49.1928V57.64H31.1208V53.068Z" fill="#EB3738"/>
</svg>
