<svg width="80" height="83" viewBox="0 0 80 83" fill="none" xmlns="http://www.w3.org/2000/svg">
<circle cx="40" cy="43" r="38.5" stroke="#33A0AB" stroke-width="3"/>
<g clip-path="url(#clip0_487_1907)">
<path d="M61.25 25C54.725 26.75 47.075 27.5 40 27.5C32.925 27.5 25.275 26.75 18.75 25L17.5 30C22.15 31.25 27.5 32.075 32.5 32.5V65H37.5V50H42.5V65H47.5V32.5C52.5 32.075 57.85 31.25 62.5 30L61.25 25ZM40 25C42.75 25 45 22.75 45 20C45 17.25 42.75 15 40 15C37.25 15 35 17.25 35 20C35 22.75 37.25 25 40 25Z" fill="#EB3738"/>
</g>
<defs>
<clipPath id="clip0_487_1907">
<rect width="60" height="60" fill="white" transform="translate(10 10)"/>
</clipPath>
</defs>
</svg>
